<svg id="Background" xmlns="http://www.w3.org/2000/svg" xmlns:xlink="http://www.w3.org/1999/xlink" viewBox="0 0 1200 576"><defs><style>.cls-1,.cls-2,.cls-3,.cls-4,.cls-5,.cls-6{opacity:0.48;}.cls-1{fill:url(#linear-gradient);}.cls-2{fill:url(#linear-gradient-2);}.cls-3{fill:url(#linear-gradient-3);}.cls-4{fill:url(#linear-gradient-4);}.cls-5{fill:url(#linear-gradient-5);}.cls-6{fill:url(#linear-gradient-6);}.cls-7,.cls-9{opacity:0.04;}.cls-7{fill:url(#linear-gradient-7);}.cls-8{fill:#fff;}.cls-9{fill:url(#linear-gradient-15);}.cls-10{mask:url(#mask);}.cls-11{mask:url(#mask-2);}.cls-12{fill:url(#linear-gradient-16);}.cls-13{filter:url(#luminosity-noclip-2);}.cls-14{filter:url(#luminosity-noclip);}</style><linearGradient id="linear-gradient" x1="847.29" y1="516" x2="1201" y2="516" gradientUnits="userSpaceOnUse"><stop offset="0" stop-color="#bcbdc0"/><stop offset="1" stop-color="gray"/></linearGradient><linearGradient id="linear-gradient-2" x1="995.17" y1="492" x2="1201" y2="492" xlink:href="#linear-gradient"/><linearGradient id="linear-gradient-3" x1="615.49" y1="539" x2="1201" y2="539" xlink:href="#linear-gradient"/><linearGradient id="linear-gradient-4" x1="1100.41" y1="475.27" x2="1907.24" y2="475.27" gradientTransform="matrix(-0.2, 0, 0, 1, 382.7, 0)" xlink:href="#linear-gradient"/><linearGradient id="linear-gradient-5" x1="1437.73" y1="436" x2="1907.24" y2="436" gradientTransform="matrix(-0.2, 0, 0, 1, 382.7, 0)" xlink:href="#linear-gradient"/><linearGradient id="linear-gradient-6" x1="571.63" y1="512.91" x2="1907.24" y2="512.91" gradientTransform="matrix(-0.2, 0, 0, 1, 382.7, 0)" xlink:href="#linear-gradient"/><linearGradient id="linear-gradient-7" x1="480" y1="290" x2="1200.44" y2="290" xlink:href="#linear-gradient"/><linearGradient id="linear-gradient-15" x1="615.1" y1="290" x2="1335.55" y2="290" xlink:href="#linear-gradient"/><filter id="luminosity-noclip" x="-88" y="-48" width="1398" height="750" filterUnits="userSpaceOnUse" color-interpolation-filters="sRGB"><feFlood flood-color="#fff" result="bg"/><feBlend in="SourceGraphic" in2="bg"/></filter><mask id="mask" x="-88" y="-48" width="1398" height="750" maskUnits="userSpaceOnUse"><g class="cls-14"><polygon class="cls-1" points="1201 452 847.29 580 1200.24 580 1201 452"/><polygon class="cls-2" points="1201 404 995.17 580 1200.56 580 1201 404"/><polygon class="cls-3" points="1201 498 615.49 580 1199.74 580 1201 498"/><polygon class="cls-4" points="0 370.55 161.9 580 0.35 580 0 370.55"/><polygon class="cls-5" points="0 292 94.21 580 0.2 580 0 292"/><polygon class="cls-6" points="0 445.82 268 580 0.57 580 0 445.82"/><polygon class="cls-7" points="1200.44 0 750 0 480 580 1198.9 580 1200.44 0"/><rect class="cls-8" x="-88" y="-48" width="1398" height="750"/></g></mask><filter id="luminosity-noclip-2" x="0" y="0" width="1335.55" height="580" filterUnits="userSpaceOnUse" color-interpolation-filters="sRGB"><feFlood flood-color="#fff" result="bg"/><feBlend in="SourceGraphic" in2="bg"/></filter><mask id="mask-2" x="0" y="0" width="1335.55" height="580" maskUnits="userSpaceOnUse"><g class="cls-13"><polygon class="cls-1" points="1201 452 847.29 580 1200.24 580 1201 452"/><polygon class="cls-2" points="1201 404 995.17 580 1200.56 580 1201 404"/><polygon class="cls-3" points="1201 498 615.49 580 1199.74 580 1201 498"/><polygon class="cls-4" points="0 370.55 161.9 580 0.35 580 0 370.55"/><polygon class="cls-5" points="0 292 94.21 580 0.2 580 0 292"/><polygon class="cls-6" points="0 445.82 268 580 0.57 580 0 445.82"/><polygon class="cls-7" points="1200.44 0 750 0 480 580 1198.9 580 1200.44 0"/><polygon class="cls-9" points="1335.55 0 885.1 0 615.1 580 1334 580 1335.55 0"/></g></mask><linearGradient id="linear-gradient-16" x1="13.6" y1="599.56" x2="1163.02" y2="-64.06" gradientUnits="userSpaceOnUse"><stop offset="0" stop-color="#00275d"/><stop offset="1"/></linearGradient></defs><title>CDG Bureau Background 01</title><g class="cls-10"><path class="cls-8" d="M1200,522c-186.84,58-440.73,15.17-560.53,4C299,494.25,230.25,527.52,0,576V0H1200Z"/></g><g class="cls-11"><path class="cls-12" d="M1200,522c-186.84,58-440.73,15.17-560.53,4C299,494.25,230.25,527.52,0,576V0H1200Z"/></g></svg>